<?xml version="1.0" encoding="utf-8"?>
<svg viewBox="47.2147 180.9256 422.2981 136.1765" xmlns="http://www.w3.org/2000/svg">
  <path fill="#ffffff" d="M 167.103 260.564 C 149.574 260.359 141.078 250.571 140.933 234.82 C 140.895 230.375 140.89 221.345 140.92 207.732 C 140.952 191.371 148.685 181.378 167.103 181.073 C 175.021 180.94 182.943 180.897 190.87 180.944 C 202.154 181.014 211.975 183.671 216.674 193.84 C 219.746 200.502 219.443 208.583 219.184 217.162 C 219.18 217.326 219.09 217.408 218.913 217.408 L 190.561 217.408 C 190.359 217.408 190.258 217.315 190.258 217.127 C 190.233 213.886 190.203 210.66 190.17 207.451 C 190.125 203.674 187.659 203.07 184.026 203.047 C 181.106 203.029 172.9 202.267 171.02 204.425 C 169.456 206.225 170.048 209.609 170.036 211.837 C 169.994 217.741 170.004 223.646 170.067 229.554 C 170.112 233.148 171.808 234.532 175.492 234.538 C 184.07 234.556 193.916 233.758 202.274 235.57 C 216.005 238.561 220.654 248.976 220.768 260.986 C 220.856 270.162 220.864 279.338 220.793 288.514 C 220.667 306.066 213.489 315.777 193.822 316.176 C 185.428 316.348 177.033 316.4 168.636 316.334 C 139.747 316.105 140.498 296.296 140.952 276.152 C 140.955 275.987 141.046 275.905 141.223 275.905 L 169.733 275.905 C 169.858 275.905 169.96 276 169.96 276.116 C 169.847 280.346 169.849 284.585 169.966 288.83 C 170.055 292.12 170.66 294.396 174.628 294.454 C 178.622 294.509 182.615 294.552 186.606 294.583 C 191.122 294.618 191.765 291.921 191.797 288.25 C 191.86 280.747 191.841 273.245 191.74 265.742 C 191.702 263.109 190.592 260.664 187.527 260.67 C 180.71 260.677 173.902 260.642 167.103 260.564 Z" style=""/>
  <path fill="#ffffff" d="M 108.871 224.886 L 99.568 224.886 C 99.394 224.886 99.252 225.017 99.252 225.179 L 99.252 244.678 C 99.252 244.873 99.147 244.971 98.937 244.971 L 85.407 244.971 C 85.188 244.971 85.079 244.869 85.079 244.666 C 85.037 227.995 85.037 211.341 85.079 194.702 C 85.117 181.712 98.54 183.7 108.032 183.689 C 112.141 183.684 114.985 183.951 116.567 184.486 C 122.988 186.662 123.53 191.793 123.6 197.968 C 123.764 213.516 123.759 229.067 123.587 244.619 C 123.587 244.854 123.461 244.971 123.208 244.971 L 109.502 244.971 C 109.328 244.971 109.187 244.84 109.187 244.678 L 109.187 225.179 C 109.187 224.983 109.081 224.886 108.871 224.886 Z M 99.492 214.611 L 108.928 214.646 C 109.059 214.65 109.168 214.551 109.168 214.429 L 109.237 195.054 C 109.242 193.718 108.302 192.632 107.137 192.626 L 101.46 192.602 C 100.291 192.596 99.339 193.679 99.334 195.018 L 99.265 214.394 C 99.265 214.512 99.365 214.608 99.492 214.611 Z" style=""/>
  <path fill="#ffffff" d="M 61.647 234.134 L 76.766 234.104 C 76.898 234.104 77.006 234.204 77.006 234.327 L 77.043 244.748 C 77.043 244.871 76.936 244.971 76.804 244.971 L 47.455 244.971 C 47.322 244.971 47.215 244.871 47.215 244.748 L 47.215 184.932 C 47.215 184.809 47.322 184.709 47.455 184.709 L 76.778 184.662 C 76.911 184.662 77.018 184.762 77.018 184.885 L 77.018 195.048 C 77.018 195.171 76.911 195.271 76.778 195.271 L 61.647 195.271 C 61.514 195.271 61.407 195.37 61.407 195.493 L 61.407 209.122 C 61.407 209.245 61.514 209.345 61.647 209.345 L 75.99 209.345 C 76.122 209.345 76.23 209.445 76.23 209.568 L 76.23 219.531 C 76.23 219.655 76.122 219.754 75.99 219.754 L 61.647 219.754 C 61.514 219.754 61.407 219.854 61.407 219.977 L 61.407 233.911 C 61.407 234.034 61.514 234.134 61.647 234.134 Z" style=""/>
  <path fill="#ffffff" d="M 252.022 209.052 L 259.389 184.932 C 259.456 184.717 259.669 184.569 259.912 184.568 L 272.843 184.568 C 273.023 184.568 273.085 184.646 273.026 184.803 C 268.665 196.801 264.306 208.794 259.95 220.78 C 259.525 221.953 259.313 223.161 259.313 224.405 C 259.321 231.168 259.294 237.903 259.231 244.607 C 259.227 244.809 259.051 244.971 258.834 244.971 L 245.127 244.971 C 244.892 244.971 244.774 244.861 244.774 244.642 C 244.82 238.032 244.822 231.442 244.781 224.874 C 244.772 223.623 244.551 222.401 244.118 221.209 C 239.707 209.112 235.357 197.125 231.068 185.248 C 230.904 184.795 231.078 184.568 231.591 184.568 L 243.853 184.568 C 244.162 184.568 244.435 184.759 244.522 185.037 L 251.87 209.052 C 251.921 209.22 251.971 209.22 252.022 209.052 Z" style=""/>
  <path fill="#ffffff" d="M 383.881 297.017 L 374.578 297.017 C 374.404 297.017 374.262 297.148 374.262 297.31 L 374.262 316.809 C 374.262 317.004 374.157 317.102 373.947 317.102 L 360.417 317.102 C 360.207 317.102 360.102 317.004 360.102 316.809 C 360.026 294.376 360.026 277.815 360.102 267.126 C 360.19 253.82 373.165 255.82 382.916 255.82 C 389.691 255.826 395.166 256.131 397.588 262.159 C 398.151 263.563 398.46 265.989 398.515 269.437 C 398.771 285.231 398.774 301.026 398.521 316.821 C 398.517 317.008 398.416 317.102 398.219 317.102 L 384.512 317.102 C 384.338 317.102 384.197 316.971 384.197 316.809 L 384.197 297.31 C 384.197 297.115 384.091 297.017 383.881 297.017 Z M 374.546 286.748 L 384.02 286.76 C 384.114 286.76 384.19 286.689 384.19 286.602 L 384.228 267.109 C 384.228 265.81 383.215 264.757 381.964 264.757 L 376.678 264.745 C 375.428 264.746 374.414 265.799 374.414 267.097 L 374.376 286.59 C 374.376 286.678 374.452 286.748 374.546 286.748 Z" style=""/>
  <path fill="#ffffff" d="M 411.281 259.597 C 415.116 254.817 422.705 255.697 429.611 255.849 C 433.543 255.939 436.661 257.245 438.965 259.767 C 439.121 259.938 439.276 259.938 439.432 259.767 C 441.669 257.222 444.297 255.924 447.317 255.873 C 455.592 255.738 465.388 254.371 468.523 261.878 C 469.17 263.422 469.496 266.09 469.5 269.883 C 469.517 285.525 469.517 301.167 469.5 316.809 C 469.5 317.004 469.395 317.102 469.185 317.102 L 455.636 317.102 C 455.426 317.102 455.321 317.004 455.321 316.809 L 455.163 266.962 C 455.159 266.071 454.381 265.349 453.422 265.349 L 448.061 265.349 C 447.19 265.349 446.484 266.006 446.484 266.816 L 446.484 316.809 C 446.484 316.971 446.343 317.102 446.169 317.102 L 432.292 317.102 C 432.081 317.102 431.977 317.004 431.977 316.809 L 431.977 266.962 C 431.977 266.071 431.2 265.349 430.242 265.349 L 424.862 265.349 C 423.914 265.349 423.146 266.064 423.146 266.945 L 423.146 316.715 C 423.146 316.929 422.959 317.102 422.73 317.102 L 409.137 317.102 C 408.91 317.102 408.796 316.997 408.796 316.786 C 408.796 299.736 408.8 282.704 408.809 265.69 C 408.813 263.676 409.637 261.645 411.281 259.597 Z" style=""/>
  <path fill="#ffffff" d="M 259.181 268.117 L 259.036 316.827 C 259.036 316.979 258.903 317.102 258.739 317.102 L 245.09 317.102 C 244.926 317.102 244.793 316.979 244.793 316.827 L 244.73 268.117 C 244.73 267.965 244.597 267.842 244.434 267.842 L 234.373 267.842 C 234.209 267.842 234.077 267.718 234.077 267.566 L 234.077 257.01 C 234.077 256.858 234.209 256.735 234.373 256.735 L 269.26 256.746 C 269.424 256.746 269.557 256.87 269.557 257.022 L 269.557 267.566 C 269.557 267.718 269.424 267.842 269.26 267.842 L 259.477 267.842 C 259.313 267.842 259.181 267.965 259.181 268.117 Z" style=""/>
  <path fill="#ffffff" d="M 290.214 292.765 L 290.214 316.733 C 290.214 316.979 290.082 317.102 289.817 317.102 L 276.356 317.102 C 276.028 317.102 275.864 316.95 275.864 316.645 L 275.864 256.946 C 275.864 256.813 275.98 256.705 276.123 256.705 C 284.588 256.698 293.067 256.695 301.561 256.7 C 314.763 256.705 313.748 268.006 313.558 277.066 C 313.483 280.804 311.78 283.603 308.449 285.464 C 308.243 285.577 308.245 285.687 308.455 285.793 C 311.386 287.231 312.862 289.423 312.883 292.366 C 312.934 300.518 312.942 308.669 312.909 316.821 C 312.909 316.976 312.77 317.102 312.6 317.102 L 298.887 317.102 C 298.572 317.102 298.414 316.956 298.414 316.662 L 298.414 293.792 C 298.414 293.063 297.778 292.472 296.995 292.472 L 290.529 292.472 C 290.319 292.472 290.214 292.57 290.214 292.765 Z M 290.214 265.936 L 290.214 282.943 C 290.214 283.03 290.29 283.101 290.384 283.101 L 297.247 283.101 C 298.247 283.101 299.057 282.363 299.057 281.453 L 299.057 267.425 C 299.057 266.515 298.247 265.778 297.247 265.778 L 290.384 265.778 C 290.29 265.778 290.214 265.849 290.214 265.936 Z" style=""/>
  <path fill="#ffffff" d="M 336.663 281.476 L 350.994 281.476 C 351.129 281.476 351.24 281.579 351.24 281.705 L 351.24 291.657 C 351.24 291.783 351.129 291.886 350.994 291.886 L 336.663 291.886 C 336.527 291.886 336.417 291.988 336.417 292.114 L 336.417 306.025 C 336.417 306.151 336.527 306.253 336.663 306.253 L 351.788 306.253 C 351.924 306.253 352.034 306.356 352.034 306.482 L 352.022 316.874 C 352.022 317 351.911 317.102 351.776 317.102 L 322.471 317.102 C 322.335 317.102 322.225 317 322.225 316.874 L 322.225 256.987 C 322.225 256.861 322.335 256.758 322.471 256.758 L 351.782 256.7 C 351.918 256.7 352.028 256.802 352.028 256.928 L 352.028 267.173 C 352.028 267.299 351.918 267.402 351.782 267.402 L 336.663 267.402 C 336.527 267.402 336.417 267.505 336.417 267.631 L 336.417 281.248 C 336.417 281.374 336.527 281.476 336.663 281.476 Z" style=""/>
</svg>